<svg version="1.1" xmlns="http://www.w3.org/2000/svg" style="display: block;" viewBox="0 0 2048 2048" width="1000" height="1000" preserveAspectRatio="none">
<path transform="translate(0,0)" fill="rgb(28,24,21)" d="M 0 0 L 2048 0 L 2048 2048 L 0 2048 L 0 0 z"/>
<path transform="translate(0,0)" fill="rgb(128,139,121)" d="M 1021.5 830.423 C 1026.54 829.911 1045.81 832.659 1051.64 833.401 C 1072.38 835.99 1093.1 838.746 1113.8 841.667 L 1329.99 871.428 L 1329.95 1306.51 L 1330 1422.21 C 1330.01 1450.54 1332.08 1491.81 1325.18 1518.04 C 1318.79 1541.46 1305.62 1562.47 1287.31 1578.42 C 1269.98 1593.59 1234.62 1610.78 1212.96 1622.97 C 1151.4 1657.6 1087.44 1689.5 1026.42 1725.08 L 1024.58 1725.72 C 1020.72 1724.57 1005.67 1715.74 1001.44 1713.38 C 986.676 1705.08 971.857 1696.88 956.982 1688.79 L 836.342 1623.07 C 818.678 1613.37 800.537 1603.48 783.285 1593.93 C 741.183 1570.62 718.225 1528.6 718.162 1480.8 C 718.14 1463.85 718.093 1446.28 718.119 1429.07 L 718.13 1313.33 L 718.15 871.408 C 819.171 858.462 920.068 841.835 1021.5 830.423 z"/>
<path transform="translate(0,0)" fill="rgb(28,24,21)" d="M 1022.52 931.436 C 1027.43 930.745 1072.31 937.152 1079.51 938.107 C 1129.15 944.531 1178.76 951.264 1228.32 958.306 L 1228.23 1353.88 L 1228.35 1443.73 C 1228.37 1464.29 1233.5 1493.24 1214.51 1505.36 C 1195.74 1517.34 1175.98 1527.71 1156.43 1538.41 C 1112.57 1561.92 1068.87 1585.75 1025.35 1609.89 L 1024.59 1610.05 C 1019.31 1608.51 1009.91 1602.52 1004.79 1599.72 C 950.803 1570.14 896.481 1541.36 842.686 1511.4 C 829.113 1503.85 820.756 1496.4 820.195 1479.81 C 819.565 1461.16 819.816 1442.57 819.824 1423.9 L 819.867 1314.91 L 819.664 958.376 C 837.727 956.927 860.873 952.653 879.255 950.388 C 926.512 944.567 975.292 936.455 1022.52 931.436 z"/>
<path transform="translate(0,0)" fill="rgb(128,139,121)" d="M 687.515 577.4 C 696.504 576.451 715.718 579.584 725.68 580.913 L 782.266 588.553 C 853.62 598.25 926.853 607.634 997.939 618.387 L 997.872 779.654 C 966.188 784.487 928.734 789.954 897.039 793.352 L 897.073 705.399 C 831.524 696.853 760.432 685.286 694.176 678.356 C 683.151 677.203 646.195 683.753 632.643 685.485 L 487.112 705.406 C 488.77 841.757 487.098 980.17 487.357 1116.69 L 487.339 1188.98 C 487.213 1243.94 479.328 1246.69 530.666 1273.69 C 574.625 1298.03 623.372 1322.43 666.093 1347.35 C 665.454 1385.26 666.06 1424.82 666.087 1462.87 C 649.609 1452.6 628.321 1441.62 610.88 1432.12 L 500.871 1372.76 C 476.603 1359.56 440.159 1342.09 421.535 1323.57 C 404.11 1306.02 392.433 1283.59 388.055 1259.25 C 384.254 1237.81 385.323 1203.28 385.354 1180.66 L 385.478 1064.48 L 385.312 618.209 C 414.868 615.376 445.833 609.518 475.437 605.863 C 545.54 597.208 617.46 584.737 687.515 577.4 z"/>
<path transform="translate(0,0)" fill="rgb(128,139,121)" d="M 1348.89 577.369 C 1360.73 575.936 1415.83 584.528 1431.77 586.589 C 1508.75 596.536 1585.62 608.685 1662.67 618.335 L 1662.73 1028.87 L 1662.69 1154.09 C 1662.67 1223.3 1674.33 1293.75 1609.64 1337.92 C 1596.01 1347.22 1581.75 1354.57 1567.33 1362.44 L 1512.89 1391.87 L 1382 1462.6 C 1383.76 1427.96 1382.35 1382.83 1382.21 1347.24 C 1420 1324.81 1467.93 1301.58 1507.58 1279.5 C 1524.53 1270.36 1558.74 1256.3 1560.1 1235.39 C 1561.42 1215.18 1560.95 1193.69 1560.9 1173.32 L 1560.87 1066.29 L 1560.68 705.345 C 1543.39 703.65 1521.51 700.068 1504.1 697.576 C 1473.23 693.054 1442.33 688.801 1411.39 684.819 C 1399.03 683.204 1369.09 678.563 1357.99 678.482 C 1343.65 678.377 1310.02 683.839 1294.14 685.904 C 1246.36 692.092 1198.63 698.627 1150.95 705.51 C 1151.37 734.567 1151.1 764.255 1151.14 793.361 C 1118.48 789.558 1083.43 784.206 1050.79 779.597 L 1050.69 617.847 L 1348.89 577.369 z"/>
<path transform="translate(0,0)" fill="rgb(128,139,121)" d="M 1017.32 323.354 C 1027.15 321.591 1105.66 333.344 1122.51 335.603 C 1166.74 341.267 1210.92 347.328 1255.05 353.786 C 1279.68 357.183 1305.51 360.23 1329.92 364.192 L 1329.98 526.684 C 1296.55 530.372 1261.73 535.721 1228.25 540.29 C 1228.4 510.591 1228.39 480.892 1228.23 451.193 C 1219.27 449.729 1209.61 448.427 1200.57 447.329 C 1144.13 440.467 1086.78 429.864 1030.24 424.572 C 1018.71 422.967 967.642 430.978 952.027 433.125 L 819.579 450.968 C 820.252 479.945 819.726 511.22 819.879 540.382 C 785.991 535.397 752.051 530.778 718.064 526.526 L 717.99 364.358 C 745.543 359.872 774.642 356.332 802.417 352.399 L 1017.32 323.354 z"/>
<path transform="translate(0,0)" fill="rgb(128,139,121)" d="M 1306.21 1790.96 C 1336.68 1790.66 1386.26 1784.49 1409.68 1806.95 C 1434.67 1830.91 1433.59 1869.12 1410.21 1894.27 C 1389.28 1912.09 1370.3 1911.21 1344.49 1911.17 L 1306.12 1911.12 C 1306.44 1871.06 1306.47 1831.01 1306.21 1790.96 z"/>
<path transform="translate(0,0)" fill="rgb(28,24,21)" d="M 1334.58 1813.78 C 1361.03 1813.38 1396.24 1809.69 1399.1 1847.07 C 1400.1 1860.2 1397.1 1868.25 1388.44 1878.14 C 1371.51 1890.48 1355.03 1887.81 1334.39 1887.73 C 1335.11 1864 1334.59 1837.71 1334.58 1813.78 z"/>
<path transform="translate(0,0)" fill="rgb(128,139,121)" d="M 1178.68 1790.87 C 1201.6 1790.69 1228.87 1788.92 1251.05 1792.65 C 1281.87 1797.84 1294.73 1836.2 1275.32 1859.7 C 1270.74 1865.24 1265.63 1868.23 1259.48 1871.71 C 1268.66 1884.74 1277.72 1897.86 1286.65 1911.06 L 1277.25 1911.12 L 1255.68 1911.18 C 1249.8 1900.98 1239.56 1886.77 1232.74 1876.46 C 1225.1 1876.02 1214.97 1876.34 1207.15 1876.36 L 1206.96 1911.16 L 1178.74 1911.12 L 1178.68 1790.87 z"/>
<path transform="translate(0,0)" fill="rgb(28,24,21)" d="M 1207.27 1813.42 C 1222.7 1813.22 1253.43 1809.17 1255.33 1830.48 C 1256.07 1838.84 1254.84 1841.99 1249.68 1848.35 C 1237.28 1856.05 1221.81 1854.15 1207.16 1854.07 L 1207.27 1813.42 z"/>
<path transform="translate(0,0)" fill="rgb(128,139,121)" d="M 386.091 1790.77 C 413.773 1790.61 472.578 1783.14 486.955 1812.81 C 500.863 1841.5 486.544 1866.17 456.997 1875.11 C 446.025 1877.16 426.321 1876.76 414.789 1876.74 L 414.373 1911.11 L 386.169 1911.12 L 386.091 1790.77 z"/>
<path transform="translate(0,0)" fill="rgb(28,24,21)" d="M 414.917 1813.36 C 431.158 1813.26 461.961 1808.77 463.423 1831.56 C 463.919 1839.31 462.279 1842.55 457.55 1848.48 C 445.747 1855.73 428.638 1853.96 414.638 1853.9 C 414.561 1840.39 414.655 1826.87 414.917 1813.36 z"/>
<path transform="translate(0,0)" fill="rgb(128,139,121)" d="M 641.18 1790.89 C 648.852 1790.7 656.853 1790.79 664.554 1790.76 C 684.626 1813.15 705.142 1839.48 725.125 1862.75 C 724.946 1838.81 724.893 1814.86 724.966 1790.92 L 752.737 1790.76 L 752.435 1911.03 L 729.211 1911.08 L 668.697 1837.41 C 668.938 1861.97 668.92 1886.54 668.642 1911.11 L 641.253 1911.12 L 641.18 1790.89 z"/>
<path transform="translate(0,0)" fill="rgb(128,139,121)" d="M 543.198 1790.92 L 572.903 1790.57 C 588.054 1827.95 610.905 1873.92 627.973 1911.2 C 617.942 1911.08 607.689 1911.16 597.64 1911.14 C 594.168 1902.78 590.189 1894.18 586.503 1885.88 L 574.5 1885.74 C 559.654 1885.51 544.479 1885.67 529.606 1885.67 C 525.979 1892.97 521.868 1903.42 518.464 1911.16 L 489.621 1911.06 C 505.431 1872.6 526.031 1829.52 543.198 1790.92 z"/>
<path transform="translate(0,0)" fill="rgb(28,24,21)" d="M 557.29 1819.38 C 560.707 1821.82 574.402 1856.56 577.413 1863.32 L 561.25 1863.38 L 538.671 1863.68 C 544.748 1851.67 552.167 1832.06 557.29 1819.38 z"/>
<path transform="translate(0,0)" fill="rgb(128,139,121)" d="M 1536.58 1790.72 L 1566.19 1790.8 C 1577.08 1815.19 1588.1 1839.53 1599.23 1863.8 C 1606.2 1878.99 1614.56 1896.05 1620.51 1911.35 C 1611.03 1910.88 1600.25 1911.15 1590.67 1911.18 L 1579.63 1885.97 L 1566.31 1885.67 C 1551.81 1885.58 1537.31 1885.58 1522.81 1885.68 C 1519.03 1892.78 1514.73 1903.56 1511.44 1911.17 L 1482.74 1911.19 C 1500.43 1870.92 1518.38 1830.77 1536.58 1790.72 z"/>
<path transform="translate(0,0)" fill="rgb(28,24,21)" d="M 1551.25 1818.65 C 1553.79 1821.56 1568.26 1857.67 1570.59 1863.33 L 1551.5 1863.42 L 1532.15 1863.59 C 1538.97 1848.9 1544.27 1833.33 1551.25 1818.65 z"/>
<path transform="translate(0,0)" fill="rgb(128,139,121)" d="M 1081.53 1790.88 L 1111.3 1790.67 C 1129.29 1830.97 1147.63 1871.12 1166.32 1911.11 C 1156.42 1910.87 1145.93 1911.11 1135.98 1911.16 C 1132.71 1903.16 1128.23 1893.87 1124.63 1885.88 L 1111.75 1885.77 C 1097.24 1885.67 1082.72 1885.69 1068.21 1885.83 L 1057.04 1911 L 1028.11 1911.09 C 1046.37 1872.84 1064.57 1829.76 1081.53 1790.88 z"/>
<path transform="translate(0,0)" fill="rgb(28,24,21)" d="M 1095.83 1819.69 C 1098.99 1822.61 1112.98 1857.23 1115.72 1863.62 L 1100.25 1863.68 L 1077.36 1863.74 C 1082.93 1849.24 1089.7 1834.06 1095.83 1819.69 z"/>
<path transform="translate(0,0)" fill="rgb(128,139,121)" d="M 827.526 1789.19 C 854.086 1786.79 869.544 1791 889.071 1809.09 C 882.519 1815.25 877.703 1819.89 871.756 1826.58 C 834.013 1793.11 788.128 1825.89 805.156 1866.48 C 808.801 1875.38 815.892 1882.42 824.814 1886.01 C 837.779 1891.22 849.26 1888.92 861.513 1883.87 C 861.9 1877.35 860.681 1854.46 862.076 1849.67 L 863.831 1848.83 L 887.64 1849.04 C 887.388 1865.53 887.385 1882.02 887.63 1898.51 C 861.856 1914.76 826.68 1919.76 800.246 1902.17 C 786.752 1893.16 777.432 1879.11 774.367 1863.17 C 767.05 1825.07 790.695 1796.37 827.526 1789.19 z"/>
<path transform="translate(0,0)" fill="rgb(128,139,121)" d="M 910.217 1790.81 C 919.311 1790.46 929.825 1790.78 939.027 1790.85 C 939.116 1815.98 937.233 1843.82 940.026 1868.37 C 944.097 1896.51 987.446 1894.93 990.523 1868.38 C 993.373 1843.78 991.888 1815.57 991.786 1790.88 L 1019.7 1790.83 L 1019.49 1813.25 C 1019.63 1837.68 1024.59 1879.25 1006.22 1898.01 C 982.36 1923.79 920.849 1916.45 913.274 1878.7 C 908.12 1853.02 910.4 1817.76 910.217 1790.81 z"/>
<path transform="translate(0,0)" fill="rgb(128,139,121)" d="M 1633.97 1790.9 L 1662.2 1790.84 L 1662.09 1911.02 L 1633.98 1911.13 L 1633.97 1790.9 z"/>
</svg>